<svg
    xmlns="http://www.w3.org/2000/svg"
    viewBox="0 0 294.34 104.01"
    width="300"
    height="104"
    fill="none"
    stroke="#ef9900"
    stroke-width="3.5"
  >
    <g id="logo">
      <path
        class="cls-2"
        d="m140.52,35.15h5.72c4.93,0,8.78,5.35,8.78,10.29v27.15m41.24,0l.07-27.48c-.03-4.93-3.53-10-8.46-9.96h-13.09m12.32,14.62l-8.85,1.03c-4.53.53-7.93,4.38-7.9,8.94h0c.04,4.93,4.07,8.9,9,8.86l15.94-.13m83.11-4.3h3.99c4.28.11,9.35-1.61,9.45-7.11v-11.99c.02-4.87-3.64-9.82-8.51-9.93h-8.02c-5.44-.12-9.61,5.4-9.55,10.8l.11,45.32m-15.25-18.68v-26.68c-.08-3.31-2.66-5.09-5.19-4.47l-9.26,2.9c-2.47.3-3.18-1.09-3.96-5.83h0c-.44-1.73-1.34-3.35-4.25-3.35h-10.66c-3.13,0-5.65,3.41-5.65,6.24v31.2m19.5-15.81c-.49,0-.89.4-.89.89s.4.89.89.89.89-.4.89-.89-.4-.89-.89-.89ZM130.8,12.75v59.84"
      />
    </g>
    <g id="symbol">
      <path
        class="cls-1"
        d="m26.84,27.79l-12.7-5.13c-4.25-2.05-4.4-6.93-.24-9.19L40.19,2.44c1.03-.44,4.32-.6,5.38-.23l27.08,9.38c.76.26,1.37.83,1.69,1.57l8.13,18.66m-34.08-12.75L4.34,37.58c-2.93,1.24-3.17,5.32-.4,6.89l48.51,27.41M30.48,17.68l8.87,1.11c.17.02.33.03.5.02l6.62-.34c.6-.03,1.2.13,1.71.46l7.25,4.7c.6.39,1.04,1,1.22,1.69l4.14,16.11c1.52,6.52,15.29,6.04,13.86-1.63l-3.56-16.55m1.63,47.15l37.84-15.87c2.77-1.41,3.02-5.28.28-6.74l-39-22.02m-33.03,38.38l1.17,3.35c.41.91.87,1.9,1.74,2.37l13.5,8.22m-33.03-23.17l4.05,19.08c.34,1.6,1.2,3.04,2.44,4.11l14.47,12.41c.37.32.65.72.82,1.18l.91,2.47c.36.96,1.2,1.66,2.21,1.83l22.19,1.23c.42.07.82.24,1.17.48l4.73,3.57c1.16.87,2.72.98,3.99.27,4.36-2.44,13.07-8.56,17.57-11.86,1.28-.94.65-3.03-.55-3.88l-11.98-7.56c-5.12-4-6.35-5.36-6.35-5.36-7.04-5.02-11.6-1.1-15.19-7.94l-2.44-7.52c-1.68-4.16-10.52-4.65-10.92.6v5.2c0,1.27.32,2.51.94,3.62l4.98,11.26"
      />
    </g>
  </svg>